FFmpeg version SVN-r25716, Copyright (c) 2000-2010 the FFmpeg developers  built on Nov 10 2010 12:23:18 with gcc 4.1.2 20080704 (Red Hat 4.1.2-48)  configuration: --enable-libmp3lame --enable-shared --disable-mmx --arch=x86_64  libavutil     50.33. 0 / 50.33. 0  libavcore      0.12. 1 /  0.12. 1  libavcodec    52.94. 4 / 52.94. 4  libavformat   52.84. 0 / 52.84. 0  libavdevice   52. 2. 2 / 52. 2. 2  libavfilter    1.59. 0 /  1.59. 0  libswscale     0.12. 0 /  0.12. 0Input #0, avi, from '/RAID10/data/converted_video_files/47599.avi':  Duration: 00:00:09.70, start: 0.000000, bitrate: 188621 kb/s    Stream #0.0: Video: msvideo1, rgb555le, 1024x1024, 20 tbr, 20 tbn, 20 tbc[buffer @ 0x16a47440] w:1024 h:1024 pixfmt:rgb555le[ffsink @ 0x16a64d50] auto-inserting filter 'auto-inserted scaler 0' between the filter 'src' and the filter 'out'[scale @ 0x16a65040] w:1024 h:1024 fmt:rgb555le -> w:1024 h:1024 fmt:yuv420p flags:0x4Output #0, flv, to '/RAID10/data/converted_video_files/47599.flv':  Metadata:    encoder         : Lavf52.84.0    Stream #0.0: Video: flv, yuv420p, 1024x1024, q=2-31, 600 kb/s, 1k tbn, 24 tbcStream mapping:  Stream #0.0 -> #0.0Press [q] to stop encodingframe=    5 fps=  0 q=9.4 size=     974kB time=0.25 bitrate=32039.6kbits/s    frame=   11 fps=  9 q=14.8 size=    1252kB time=0.54 bitrate=18956.4kbits/s    frame=   16 fps=  9 q=14.8 size=    1434kB time=0.79 bitrate=14828.4kbits/s    frame=   23 fps= 10 q=26.1 size=    1582kB time=1.12 bitrate=11532.5kbits/s    frame=   33 fps= 11 q=31.0 size=    1686kB time=1.62 bitrate=8500.4kbits/s    frame=   40 fps= 12 q=31.0 size=    1761kB time=2.00 bitrate=7211.5kbits/s    frame=   50 fps= 13 q=31.0 size=    1820kB time=2.50 bitrate=5966.3kbits/s    frame=   59 fps= 13 q=31.0 size=    1877kB time=2.96 bitrate=5197.1kbits/s    frame=   69 fps= 14 q=31.0 size=    1943kB time=3.46 bitrate=4600.8kbits/s    frame=   78 fps= 14 q=31.0 size=    1977kB time=3.88 bitrate=4178.6kbits/s    frame=   86 fps= 14 q=31.0 size=    2063kB time=4.29 bitrate=3938.6kbits/s    frame=   95 fps= 14 q=31.0 size=    2119kB time=4.75 bitrate=3655.4kbits/s    frame=  101 fps= 14 q=31.0 size=    2136kB time=5.04 bitrate=3471.2kbits/s    frame=  111 fps= 15 q=31.0 size=    2203kB time=5.54 bitrate=3256.8kbits/s    frame=  120 fps= 15 q=31.0 size=    2262kB time=6.00 bitrate=3088.8kbits/s    frame=  129 fps= 15 q=31.0 size=    2338kB time=6.46 bitrate=2965.1kbits/s    frame=  133 fps= 15 q=31.0 size=    2374kB time=6.62 bitrate=2935.7kbits/s    frame=  142 fps= 15 q=31.0 size=    2442kB time=7.08 bitrate=2823.4kbits/s    frame=  148 fps= 15 q=31.0 size=    2468kB time=7.38 bitrate=2741.7kbits/s    frame=  156 fps= 15 q=31.0 size=    2534kB time=7.79 bitrate=2663.8kbits/s    frame=  165 fps= 15 q=31.0 size=    2597kB time=8.25 bitrate=2578.3kbits/s    frame=  173 fps= 15 q=31.0 size=    2677kB time=8.62 bitrate=2543.1kbits/s    frame=  182 fps= 15 q=31.0 size=    2758kB time=9.08 bitrate=2487.8kbits/s    frame=  191 fps= 15 q=31.0 size=    2805kB time=9.54 bitrate=2408.0kbits/s    frame=  194 fps= 15 q=31.0 Lsize=    2841kB time=9.71 bitrate=2397.6kbits/s    video:2838kB audio:0kB global headers:0kB muxing overhead 0.114033%